<?xml version="1.0" encoding="iso-8859-1"?>
<!-- Generator: Adobe Illustrator 19.0.0, SVG Export Plug-In . SVG Version: 6.00 Build 0)  -->
<svg version="1.1" id="Capa_1" xmlns="http://www.w3.org/2000/svg" xmlns:xlink="http://www.w3.org/1999/xlink" x="0px" y="0px"
	 viewBox="0 0 512 512" style="enable-background:new 0 0 512 512;" xml:space="preserve">
<path style="fill:#F4A14E;" d="M512,256c0,99.777-57.083,186.232-140.382,228.467c-24.806,12.57-51.952,21.232-80.593,25.151
	c-10.271,1.411-20.731,2.205-31.347,2.351C258.455,511.99,257.223,512,256,512c-5.078,0-10.125-0.146-15.13-0.449
	c-18.077-1.045-35.641-3.971-52.517-8.589c-10.752-2.926-21.211-6.551-31.347-10.804c-6.405-2.685-12.675-5.632-18.808-8.819
	c-19.028-9.874-36.665-22.079-52.517-36.216c-11.41-10.177-21.912-21.358-31.347-33.405c-6.844-8.735-13.134-17.941-18.808-27.533
	c-13.364-22.591-23.353-47.407-29.288-73.759C2.152,294.275,0,275.393,0,256s2.152-38.275,6.238-56.424
	c5.935-26.352,15.924-51.169,29.288-73.759c5.674-9.592,11.964-18.798,18.808-27.533c9.435-12.048,19.937-23.228,31.347-33.405
	c7.304-6.52,14.984-12.622,23.009-18.265C150.34,17.241,201.153,0,256,0C397.385,0,512,114.615,512,256z"/>
<g>
	<path style="fill:#F9AF6B;" d="M0,256c0-19.393,2.152-38.275,6.238-56.424h73.174c5.193,0,9.895,2.1,13.302,5.507
		c3.396,3.406,5.507,8.108,5.507,13.302c0,10.386-8.422,18.808-18.808,18.808H18.808C8.422,237.192,0,245.614,0,256z"/>
	<path style="fill:#F9AF6B;" d="M127.478,293.616c0,10.386-8.422,18.808-18.808,18.808H6.238C2.152,294.275,0,275.393,0,256
		c0,10.386,8.422,18.808,18.808,18.808h89.861c5.193,0,9.895,2.1,13.302,5.507C125.367,283.721,127.478,288.423,127.478,293.616z"/>
</g>
<path style="fill:#4BC999;" d="M512,256c0,14.127-1.149,27.982-3.344,41.493c-6.834,41.9-23.834,80.384-48.389,112.839
	c-23.427,30.96-53.739,56.435-88.649,74.135C215.719,431.982,103.445,284.62,103.445,111.041c0-21.943,1.797-43.468,5.245-64.428
	C150.34,17.241,201.153,0,256,0c26.425,0,51.921,4.002,75.901,11.442c68.963,21.379,125.45,71.116,155.815,135.596
	C503.296,180.099,512,217.036,512,256z"/>
<path style="fill:#C69A6A;" d="M85.682,56.32v390.802c-11.41-10.177-21.912-21.358-31.347-33.405
	c-6.844-8.735-13.134-17.941-18.808-27.533V56.32c0-9.174,7.44-16.614,16.614-16.614h16.927
	C78.242,39.706,85.682,47.146,85.682,56.32z"/>
<g>
	<path style="fill:#5BD3A2;" d="M487.717,147.038H219.481c-5.193,0-9.895-2.1-13.291-5.507c-3.406-3.406-5.507-8.108-5.507-13.302
		c0-10.386,8.411-18.808,18.798-18.808h57.177c5.193,0,9.895-2.1,13.302-5.507s5.507-8.108,5.507-13.302
		c0-10.386-8.422-18.808-18.808-18.808h-15.956c-5.193,0-9.895-2.1-13.302-5.507c-3.396-3.406-5.507-8.108-5.507-13.302
		c0-10.386,8.422-18.808,18.808-18.808h52.82c5.193,0,9.895-2.1,13.302-5.507c3.406-3.396,5.507-8.098,5.507-13.291
		c0-1.358-0.146-2.675-0.428-3.95C400.865,32.82,457.352,82.557,487.717,147.038z"/>
	<path style="fill:#5BD3A2;" d="M508.656,297.493c-6.834,41.9-23.834,80.384-48.389,112.839h-54.888
		c-5.193,0-9.895-2.1-13.302-5.507c-3.396-3.406-5.507-8.108-5.507-13.302c0-10.386,8.422-18.808,18.808-18.808h5.225
		c5.193,0,9.895-2.1,13.302-5.507c3.396-3.406,5.507-8.108,5.507-13.302c0-10.386-8.422-18.808-18.808-18.808H359.34
		c-5.193,0-9.895-2.1-13.302-5.507c-3.396-3.406-5.507-8.108-5.507-13.302c0-10.386,8.422-18.798,18.808-18.798H508.656z"/>
	<path style="fill:#5BD3A2;" d="M376.508,206.618v-0.002c0-10.386-8.42-18.806-18.806-18.806h-178.67
		c-10.386,0-18.806,8.42-18.806,18.806v0.002c0,10.386,8.42,18.806,18.806,18.806h29.779c10.386,0,18.806,8.42,18.806,18.806v0.002
		c0,10.386,8.42,18.806,18.806,18.806h148.893c10.386,0,18.806-8.42,18.806-18.806v-0.002c0-10.386-8.42-18.806-18.806-18.806l0,0
		C384.928,225.424,376.508,217.004,376.508,206.618z"/>
</g>
<path style="fill:#B58657;" d="M70.008,39.758c-8.735,0.481-15.673,7.701-15.673,16.562v357.397
	c-6.844-8.735-13.134-17.941-18.808-27.533V56.32c0-9.174,7.44-16.614,16.614-16.614h16.927
	C69.392,39.706,69.695,39.737,70.008,39.758z"/>
<path style="fill:#C69A6A;" d="M188.353,56.32v446.642c-10.752-2.926-21.211-6.551-31.347-10.804
	c-6.405-2.685-12.675-5.632-18.808-8.819V56.32c0-9.174,7.44-16.614,16.614-16.614h16.927
	C180.914,39.706,188.353,47.146,188.353,56.32z"/>
<path style="fill:#B58657;" d="M172.68,39.758c-8.735,0.481-15.673,7.701-15.673,16.562v435.837
	c-6.405-2.685-12.675-5.632-18.808-8.819V56.32c0-9.174,7.44-16.614,16.614-16.614h16.927
	C172.053,39.706,172.366,39.737,172.68,39.758z"/>
<path style="fill:#C69A6A;" d="M291.025,56.32v453.298c-10.271,1.411-20.731,2.205-31.347,2.351C258.455,511.99,257.223,512,256,512
	c-5.078,0-10.125-0.146-15.13-0.449V56.32c0-9.174,7.44-16.614,16.614-16.614h16.927C283.585,39.706,291.025,47.146,291.025,56.32z"
	/>
<path style="fill:#B58657;" d="M275.352,39.758c-8.735,0.481-15.673,7.701-15.673,16.562v455.649
	C258.455,511.99,257.223,512,256,512c-5.078,0-10.125-0.146-15.13-0.449V56.32c0-9.174,7.44-16.614,16.614-16.614h16.927
	C274.725,39.706,275.038,39.737,275.352,39.758z"/>
<g>
	<path style="fill:#D3AA81;" d="M73.84,173.387L73.84,173.387c-4.424,0-8.011-3.586-8.011-8.011V65.763
		c0-4.424,3.586-8.011,8.011-8.011l0,0c4.424,0,8.011,3.586,8.011,8.011v99.613C81.85,169.8,78.264,173.387,73.84,173.387z"/>
	<path style="fill:#D3AA81;" d="M177.771,173.387L177.771,173.387c-4.424,0-8.011-3.586-8.011-8.011V65.763
		c0-4.424,3.586-8.011,8.011-8.011l0,0c4.424,0,8.011,3.586,8.011,8.011v99.613C185.781,169.8,182.195,173.387,177.771,173.387z"/>
	<path style="fill:#D3AA81;" d="M278.081,173.387L278.081,173.387c-4.424,0-8.011-3.586-8.011-8.011V65.763
		c0-4.424,3.586-8.011,8.011-8.011l0,0c4.424,0,8.011,3.586,8.011,8.011v99.613C286.091,169.8,282.505,173.387,278.081,173.387z"/>
</g>
<path style="fill:#FFD15C;" d="M505.396,38.494l-99.349,99.338c-5.413,5.423-8.14,12.518-8.14,19.613
	c0,7.116,2.727,14.221,8.14,19.634l-29.539,29.539l-9.603,9.613l-12.476,12.466l-9.603,9.613L153.893,429.234
	c-8.411,8.411-22.037,8.411-30.448,0l-40.688-40.678c-8.401-8.411-8.411-22.037,0-30.448l5.998-5.998l18.119-18.119l48.055-48.055
	l17.93-17.93L273.69,167.173l9.613-9.603l12.466-12.476l9.603-9.603l29.539-29.539c10.846,10.836,28.411,10.836,39.257,0
	l99.338-99.359C477.905,2.205,483.683,0,489.441,0c5.778,0,11.557,2.205,15.956,6.593C514.194,15.402,514.194,29.675,505.396,38.494
	z"/>
<g>
	<polygon style="fill:#FF525D;" points="376.508,206.618 366.905,216.231 295.769,145.095 305.371,135.492 	"/>
	<polygon style="fill:#FF525D;" points="354.429,228.697 344.827,238.31 273.69,167.173 283.303,157.571 	"/>
</g>
<path style="fill:#EDBB4C;" d="M169.921,320.272c0,25.861-20.971,46.832-46.832,46.832c-13.573,0-25.788-5.768-34.335-14.994
	l18.119-18.119l48.055-48.055C164.153,294.484,169.921,306.698,169.921,320.272z"/>
<path style="fill:#EF4152;" d="M184.027,297.89v0.439c0,25.861-20.971,46.832-46.832,46.832c-25.872,0-46.843-20.971-46.843-46.832
	c0-18.965,11.264-35.287,27.47-42.653c5.904-2.685,12.466-4.18,19.372-4.18C162.91,251.496,183.787,272.217,184.027,297.89z"/>
<path style="fill:#FF525D;" d="M184.027,297.89c-6.332,13.427-19.978,22.716-35.809,22.716c-21.859,0-39.581-17.721-39.581-39.581
	c0-9.644,3.448-18.484,9.185-25.349c5.904-2.685,12.466-4.18,19.372-4.18C162.91,251.496,183.787,272.217,184.027,297.89z"/>
<path style="fill:#B58657;" d="M505.396,38.494l-99.349,99.338c-5.413,5.423-8.14,12.518-8.14,19.613
	c0,7.116,2.727,14.221,8.14,19.634l-71.137-71.126c10.846,10.836,28.411,10.836,39.257,0l99.338-99.359
	C477.905,2.205,483.683,0,489.441,0c5.778,0,11.557,2.205,15.956,6.593C514.194,15.402,514.194,29.675,505.396,38.494z"/>
<path style="fill:#FFDC8D;" d="M315.289,230.797L315.289,230.797c-5.509-5.509-14.439-5.509-19.948,0l-98.632,98.632
	c-5.509,5.509-5.509,14.439,0,19.948l0,0c5.509,5.509,14.439,5.509,19.948,0l98.632-98.632
	C320.797,245.236,320.797,236.306,315.289,230.797z"/>
<g>
	<circle style="fill:#FF6E7C;" cx="156.735" cy="280.315" r="9.927"/>
	<circle style="fill:#FF6E7C;" cx="139.975" cy="268.142" r="7.601"/>
</g>
<path style="fill:#C69A6A;" d="M268.082,19.751h-32.485c-3.599-7.199-11.021-12.154-19.617-12.154
	c-8.596,0-16.018,4.955-19.618,12.154h-62.526c-3.6-7.199-11.022-12.154-19.618-12.154s-16.018,4.955-19.618,12.154H62.117
	c-5.511,0-9.978,4.467-9.978,9.978s4.467,9.978,9.978,9.978h32.668c3.668,6.996,10.988,11.775,19.435,11.775
	s15.768-4.779,19.435-11.775h62.89c3.668,6.996,10.988,11.775,19.435,11.775c8.447,0,15.768-4.779,19.435-11.775h32.668
	c5.511,0,9.978-4.467,9.978-9.978S273.593,19.751,268.082,19.751z"/>
<path style="fill:#B58657;" d="M268.082,27.881h-32.667c-3.668,6.996-10.988,11.775-19.435,11.775
	c-8.447,0-15.768-4.779-19.435-11.775h-62.891c-3.668,6.996-10.988,11.775-19.435,11.775s-15.768-4.779-19.435-11.775H62.117
	c-3.295,0-6.207-1.604-8.024-4.065c-1.223,1.656-1.954,3.697-1.954,5.913c0,5.511,4.467,9.978,9.978,9.978h32.668
	c3.668,6.996,10.988,11.775,19.435,11.775s15.768-4.779,19.435-11.775h62.89c3.668,6.996,10.988,11.775,19.435,11.775
	c8.447,0,15.768-4.779,19.435-11.775h32.668c5.511,0,9.978-4.467,9.978-9.978c0-2.216-0.731-4.257-1.954-5.913
	C274.29,26.277,271.377,27.881,268.082,27.881z"/>
<g>
	<circle style="fill:#D3AA81;" cx="118.659" cy="22.605" r="8.079"/>
	<circle style="fill:#D3AA81;" cx="221.863" cy="22.605" r="8.079"/>
</g>
<g>
</g>
<g>
</g>
<g>
</g>
<g>
</g>
<g>
</g>
<g>
</g>
<g>
</g>
<g>
</g>
<g>
</g>
<g>
</g>
<g>
</g>
<g>
</g>
<g>
</g>
<g>
</g>
<g>
</g>
</svg>
